# xmcd
#
# Track frame offsets: 
#        150
#        35092
#        64255
#        100600
#        119377
#        126987
#        151977
#        174817
#        189602
#        211080
#        237262
#        257007
#        275402
#        298922
#
# Disc length: 4303 seconds
#
# Revision: 0
# Processed by: cddbd v1.5.1PL2 Copyright (c) Steve Scherf et al.
# Submitted via: ExactAudioCopy v0.95b4
#
DISCID=cb10cd0e
DTITLE=Machine - There But For The Grace of God Go I
DYEAR=1979
DGENRE=Disco
TTITLE0=There But For The Grace of God Go I (Remix)
TTITLE1=You've Come A Long Way
TTITLE2=Marisa
TTITLE3=Get Your Body Ready
TTITLE4=Machine Introduction
TTITLE5=Power and Reason (Mr. Exx-On 52nd Street)
TTITLE6=I Finally Found
TTITLE7=Number Player
TTITLE8=You Learned Your Lesson
TTITLE9=Is It Love
TTITLE10=You Really Don't Love Me
TTITLE11=Thunder, Lightning and Rain
TTITLE12=(In A World Of) Broken Dreams
TTITLE13=There But For The Grace of God Go I (Original Version)
EXTD=
EXTT0=
EXTT1=
EXTT2=
EXTT3=
EXTT4=
EXTT5=
EXTT6=
EXTT7=
EXTT8=
EXTT9=
EXTT10=
EXTT11=
EXTT12=
EXTT13=
PLAYORDER=
